%TF.GenerationSoftware,KiCad,Pcbnew,9.0.2*%
%TF.CreationDate,2025-07-20T01:46:30+05:30*%
%TF.ProjectId,clackintosh-jr,636c6163-6b69-46e7-946f-73682d6a722e,rev?*%
%TF.SameCoordinates,Original*%
%TF.FileFunction,Copper,L1,Top*%
%TF.FilePolarity,Positive*%
%FSLAX46Y46*%
G04 Gerber Fmt 4.6, Leading zero omitted, Abs format (unit mm)*
G04 Created by KiCad (PCBNEW 9.0.2) date 2025-07-20 01:46:30*
%MOMM*%
%LPD*%
G01*
G04 APERTURE LIST*
G04 Aperture macros list*
%AMRoundRect*
0 Rectangle with rounded corners*
0 $1 Rounding radius*
0 $2 $3 $4 $5 $6 $7 $8 $9 X,Y pos of 4 corners*
0 Add a 4 corners polygon primitive as box body*
4,1,4,$2,$3,$4,$5,$6,$7,$8,$9,$2,$3,0*
0 Add four circle primitives for the rounded corners*
1,1,$1+$1,$2,$3*
1,1,$1+$1,$4,$5*
1,1,$1+$1,$6,$7*
1,1,$1+$1,$8,$9*
0 Add four rect primitives between the rounded corners*
20,1,$1+$1,$2,$3,$4,$5,0*
20,1,$1+$1,$4,$5,$6,$7,0*
20,1,$1+$1,$6,$7,$8,$9,0*
20,1,$1+$1,$8,$9,$2,$3,0*%
G04 Aperture macros list end*
%TA.AperFunction,ComponentPad*%
%ADD10R,2.000000X2.000000*%
%TD*%
%TA.AperFunction,ComponentPad*%
%ADD11C,2.000000*%
%TD*%
%TA.AperFunction,ComponentPad*%
%ADD12R,3.200000X2.000000*%
%TD*%
%TA.AperFunction,ComponentPad*%
%ADD13RoundRect,0.250000X0.550000X-0.550000X0.550000X0.550000X-0.550000X0.550000X-0.550000X-0.550000X0*%
%TD*%
%TA.AperFunction,ComponentPad*%
%ADD14C,1.600000*%
%TD*%
%TA.AperFunction,ComponentPad*%
%ADD15R,1.700000X1.700000*%
%TD*%
%TA.AperFunction,ComponentPad*%
%ADD16O,1.700000X1.700000*%
%TD*%
%TA.AperFunction,ComponentPad*%
%ADD17C,2.200000*%
%TD*%
%TA.AperFunction,ComponentPad*%
%ADD18C,1.524000*%
%TD*%
%TA.AperFunction,ViaPad*%
%ADD19C,0.600000*%
%TD*%
%TA.AperFunction,Conductor*%
%ADD20C,0.200000*%
%TD*%
G04 APERTURE END LIST*
D10*
%TO.P,SW9,A,A*%
%TO.N,EC11RA*%
X124400000Y-77970000D03*
D11*
%TO.P,SW9,B,B*%
%TO.N,EC11RB*%
X124400000Y-82970000D03*
%TO.P,SW9,C,C*%
%TO.N,GND*%
X124400000Y-80470000D03*
D12*
%TO.P,SW9,MP,MP*%
X131900000Y-74870000D03*
X131900000Y-86070000D03*
D11*
%TO.P,SW9,S1,S1*%
%TO.N,EC11SW1*%
X138900000Y-82970000D03*
%TO.P,SW9,S2,S2*%
%TO.N,Column 3*%
X138900000Y-77970000D03*
%TD*%
D13*
%TO.P,D6,1,K*%
%TO.N,Row 3*%
X171400000Y-125590000D03*
D14*
%TO.P,D6,2,A*%
%TO.N,Net-(D6-A)*%
X171400000Y-117970000D03*
%TD*%
D15*
%TO.P,J1,1,Pin_1*%
%TO.N,GND*%
X146400000Y-84165000D03*
D16*
%TO.P,J1,2,Pin_2*%
%TO.N,VCC*%
X146400000Y-81625000D03*
%TO.P,J1,3,Pin_3*%
%TO.N,SCL*%
X146400000Y-79085000D03*
%TO.P,J1,4,Pin_4*%
%TO.N,SDA*%
X146400000Y-76545000D03*
%TD*%
D17*
%TO.P,SW7,1,1*%
%TO.N,Column 3*%
X145900000Y-116700000D03*
%TO.P,SW7,2,2*%
%TO.N,Net-(D8-A)*%
X139550000Y-119240000D03*
%TD*%
D13*
%TO.P,D7,1,K*%
%TO.N,Row 3*%
X152400000Y-125240000D03*
D14*
%TO.P,D7,2,A*%
%TO.N,EC11SW1*%
X152400000Y-117620000D03*
%TD*%
D17*
%TO.P,SW6,1,1*%
%TO.N,Column 2*%
X164900000Y-116700000D03*
%TO.P,SW6,2,2*%
%TO.N,Net-(D6-A)*%
X158550000Y-119240000D03*
%TD*%
D13*
%TO.P,D3,1,K*%
%TO.N,Row 3*%
X171400000Y-107740000D03*
D14*
%TO.P,D3,2,A*%
%TO.N,Net-(D3-A)*%
X171400000Y-100120000D03*
%TD*%
D13*
%TO.P,D4,1,K*%
%TO.N,Row 1*%
X190400000Y-107740000D03*
D14*
%TO.P,D4,2,A*%
%TO.N,Net-(D4-A)*%
X190400000Y-100120000D03*
%TD*%
D13*
%TO.P,D8,1,K*%
%TO.N,Row 1*%
X133400000Y-125630000D03*
D14*
%TO.P,D8,2,A*%
%TO.N,Net-(D8-A)*%
X133400000Y-118010000D03*
%TD*%
D13*
%TO.P,D9,1,K*%
%TO.N,Row 2*%
X115400000Y-126050000D03*
D14*
%TO.P,D9,2,A*%
%TO.N,Net-(D9-A)*%
X115400000Y-118430000D03*
%TD*%
D17*
%TO.P,SW5,1,1*%
%TO.N,Column 2*%
X183900000Y-116700000D03*
%TO.P,SW5,2,2*%
%TO.N,Net-(D5-A)*%
X177550000Y-119240000D03*
%TD*%
%TO.P,SW4,1,1*%
%TO.N,Column 2*%
X184020000Y-97340000D03*
%TO.P,SW4,2,2*%
%TO.N,Net-(D4-A)*%
X177670000Y-99880000D03*
%TD*%
%TO.P,SW8,1,1*%
%TO.N,Column 3*%
X126900000Y-116740000D03*
%TO.P,SW8,2,2*%
%TO.N,Net-(D9-A)*%
X120550000Y-119280000D03*
%TD*%
%TO.P,SW3,1,1*%
%TO.N,Column 1*%
X165020000Y-97340000D03*
%TO.P,SW3,2,2*%
%TO.N,Net-(D3-A)*%
X158670000Y-99880000D03*
%TD*%
D13*
%TO.P,D5,1,K*%
%TO.N,Row 2*%
X189900000Y-125590000D03*
D14*
%TO.P,D5,2,A*%
%TO.N,Net-(D5-A)*%
X189900000Y-117970000D03*
%TD*%
D17*
%TO.P,SW2,1,1*%
%TO.N,Column 1*%
X146000000Y-97300000D03*
%TO.P,SW2,2,2*%
%TO.N,Net-(D2-A)*%
X139650000Y-99840000D03*
%TD*%
%TO.P,SW1,1,1*%
%TO.N,Column 1*%
X126860000Y-97300000D03*
%TO.P,SW1,2,2*%
%TO.N,Net-(D1-A)*%
X120510000Y-99840000D03*
%TD*%
D13*
%TO.P,D2,1,K*%
%TO.N,Row 2*%
X152400000Y-107740000D03*
D14*
%TO.P,D2,2,A*%
%TO.N,Net-(D2-A)*%
X152400000Y-100120000D03*
%TD*%
D13*
%TO.P,D1,1,K*%
%TO.N,Row 1*%
X133400000Y-106740000D03*
D14*
%TO.P,D1,2,A*%
%TO.N,Net-(D1-A)*%
X133400000Y-99120000D03*
%TD*%
D18*
%TO.P,U1,1,GPIO26/ADC0/A0*%
%TO.N,LED*%
X189185000Y-71118500D03*
%TO.P,U1,2,GPIO27/ADC1/A1*%
%TO.N,Row 1*%
X189185000Y-73658500D03*
%TO.P,U1,3,GPIO28/ADC2/A2*%
%TO.N,Row 2*%
X189185000Y-76198500D03*
%TO.P,U1,4,GPIO29/ADC3/A3*%
%TO.N,Row 3*%
X189185000Y-78738500D03*
%TO.P,U1,5,GPIO6/SDA*%
%TO.N,SDA*%
X189185000Y-81278500D03*
%TO.P,U1,6,GPIO7/SCL*%
%TO.N,SCL*%
X189185000Y-83818500D03*
%TO.P,U1,7,GPIO0/TX*%
%TO.N,EC11RA*%
X189185000Y-86358500D03*
%TO.P,U1,8,GPIO1/RX*%
%TO.N,EC11RB*%
X173945000Y-86358500D03*
%TO.P,U1,9,GPIO2/SCK*%
%TO.N,Column 3*%
X173945000Y-83818500D03*
%TO.P,U1,10,GPIO4/MISO*%
%TO.N,Column 2*%
X173945000Y-81278500D03*
%TO.P,U1,11,GPIO3/MOSI*%
%TO.N,Column 1*%
X173945000Y-78738500D03*
%TO.P,U1,12,3V3*%
%TO.N,VCC*%
X173945000Y-76198500D03*
%TO.P,U1,13,GND*%
%TO.N,GND*%
X173945000Y-73658500D03*
%TO.P,U1,14,VBUS*%
%TO.N,+5V*%
X173945000Y-71118500D03*
%TD*%
D19*
%TO.N,Row 2*%
X152901300Y-122324500D03*
X191604600Y-104663200D03*
%TO.N,Row 3*%
X188769200Y-104337600D03*
%TO.N,GND*%
X184064100Y-124089600D03*
X135412700Y-80470000D03*
X166220700Y-106993000D03*
X184443800Y-104490500D03*
X147101700Y-104080000D03*
X166271900Y-123238100D03*
%TO.N,Net-(D10-DOUT)*%
X184839800Y-118674800D03*
X176129300Y-117354600D03*
%TO.N,Net-(D11-DIN)*%
X123866300Y-116437500D03*
X164515300Y-111221200D03*
%TO.N,Net-(D12-DOUT)*%
X140230300Y-110320200D03*
X179776400Y-110787000D03*
%TO.N,Net-(D13-DOUT)*%
X147174800Y-128211500D03*
X158122600Y-125786200D03*
%TO.N,Net-(D14-DOUT)*%
X149508500Y-103791100D03*
X159453600Y-104035900D03*
%TO.N,Net-(D15-DOUT)*%
X167642200Y-109230300D03*
X120880800Y-104554600D03*
%TO.N,VCC*%
X148173900Y-79268700D03*
%TD*%
D20*
%TO.N,Row 1*%
X167869900Y-109853500D02*
X140614500Y-109853500D01*
X189031000Y-109109000D02*
X190400000Y-107740000D01*
X137501000Y-106740000D02*
X133400000Y-106740000D01*
X186357600Y-109275300D02*
X186181100Y-109451800D01*
X186357600Y-109275300D02*
X186523900Y-109109000D01*
X186181100Y-109451800D02*
X168271500Y-109451800D01*
X140614500Y-109853500D02*
X137501000Y-106740000D01*
X168271500Y-109451900D02*
X167869900Y-109853500D01*
X186357600Y-109275300D02*
X186523900Y-109109000D01*
X168271500Y-109451800D02*
X168271500Y-109451900D01*
X186523900Y-109109000D02*
X189031000Y-109109000D01*
%TO.N,Net-(D1-A)*%
X132680000Y-99840000D02*
X133400000Y-99120000D01*
X120510000Y-99840000D02*
X132680000Y-99840000D01*
%TO.N,Net-(D2-A)*%
X152400000Y-100120000D02*
X152120000Y-99840000D01*
X152120000Y-99840000D02*
X139650000Y-99840000D01*
%TO.N,Row 2*%
X115400000Y-126050000D02*
X117146300Y-124303700D01*
X191604600Y-104663200D02*
X191422500Y-104663200D01*
X150922100Y-124303700D02*
X152901300Y-122324500D01*
X167891400Y-108628600D02*
X167393100Y-108628600D01*
X191422500Y-104663200D02*
X187519700Y-108566000D01*
X117146300Y-124303700D02*
X150922100Y-124303700D01*
X185883600Y-108981100D02*
X168243900Y-108981100D01*
X187519700Y-108566000D02*
X186298700Y-108566000D01*
X186298700Y-108566000D02*
X185883600Y-108981100D01*
X168243900Y-108981100D02*
X167891400Y-108628600D01*
X167193100Y-108828600D02*
X153488600Y-108828600D01*
X167393100Y-108628600D02*
X167193100Y-108828600D01*
X153488600Y-108828600D02*
X152400000Y-107740000D01*
%TO.N,Row 3*%
X187479100Y-106775400D02*
X185685900Y-108568600D01*
X188534200Y-106775400D02*
X187479100Y-106775400D01*
X188769200Y-106540400D02*
X188534200Y-106775400D01*
X185685900Y-108568600D02*
X172228600Y-108568600D01*
X152742900Y-124897100D02*
X170707100Y-124897100D01*
X188769200Y-104337600D02*
X188769200Y-106540400D01*
X172228600Y-108568600D02*
X171400000Y-107740000D01*
X152400000Y-125240000D02*
X152742900Y-124897100D01*
X170707100Y-124897100D02*
X171400000Y-125590000D01*
%TO.N,Net-(D3-A)*%
X171160000Y-99880000D02*
X158670000Y-99880000D01*
X171400000Y-100120000D02*
X171160000Y-99880000D01*
%TO.N,Net-(D4-A)*%
X190160000Y-99880000D02*
X190400000Y-100120000D01*
X177670000Y-99880000D02*
X190160000Y-99880000D01*
%TO.N,Net-(D5-A)*%
X188593500Y-119276500D02*
X189900000Y-117970000D01*
X177550000Y-119240000D02*
X177586500Y-119276500D01*
X177586500Y-119276500D02*
X188593500Y-119276500D01*
%TO.N,Net-(D6-A)*%
X170130000Y-119240000D02*
X171400000Y-117970000D01*
X158550000Y-119240000D02*
X170130000Y-119240000D01*
%TO.N,Net-(D8-A)*%
X133400000Y-118010000D02*
X138320000Y-118010000D01*
X138320000Y-118010000D02*
X139550000Y-119240000D01*
%TO.N,Net-(D9-A)*%
X115400000Y-118430000D02*
X119700000Y-118430000D01*
X119700000Y-118430000D02*
X120550000Y-119280000D01*
%TO.N,GND*%
X124400000Y-80470000D02*
X135412700Y-80470000D01*
X148001700Y-104980000D02*
X164207700Y-104980000D01*
X184064100Y-124089600D02*
X183982800Y-124170900D01*
X141553300Y-80470000D02*
X145248300Y-84165000D01*
X167204700Y-124170900D02*
X166271900Y-123238100D01*
X147101700Y-104080000D02*
X148001700Y-104980000D01*
X164207700Y-104980000D02*
X166220700Y-106993000D01*
X131900000Y-74870000D02*
X133801700Y-74870000D01*
X168358600Y-104855100D02*
X184079200Y-104855100D01*
X135013200Y-73658500D02*
X133801700Y-74870000D01*
X183982800Y-124170900D02*
X167204700Y-124170900D01*
X135412700Y-80470000D02*
X141553300Y-80470000D01*
X173945000Y-73658500D02*
X135013200Y-73658500D01*
X166220700Y-106993000D02*
X168358600Y-104855100D01*
X146400000Y-84165000D02*
X145248300Y-84165000D01*
X184079200Y-104855100D02*
X184443800Y-104490500D01*
%TO.N,Net-(D10-DOUT)*%
X181306200Y-118674800D02*
X179986000Y-117354600D01*
X184839800Y-118674800D02*
X181306200Y-118674800D01*
X179986000Y-117354600D02*
X176129300Y-117354600D01*
%TO.N,Net-(D11-DIN)*%
X129082600Y-111221200D02*
X123866300Y-116437500D01*
X164515300Y-111221200D02*
X129082600Y-111221200D01*
%TO.N,Net-(D12-DOUT)*%
X179309600Y-110320200D02*
X179776400Y-110787000D01*
X179309600Y-110320200D02*
X179776400Y-110787000D01*
X140230300Y-110320200D02*
X179309600Y-110320200D01*
X179776400Y-110787000D02*
X179309600Y-110320200D01*
%TO.N,Net-(D13-DOUT)*%
X158122600Y-125786200D02*
X155697300Y-128211500D01*
X155697300Y-128211500D02*
X147174800Y-128211500D01*
%TO.N,Net-(D14-DOUT)*%
X149753300Y-104035900D02*
X149508500Y-103791100D01*
X159453600Y-104035900D02*
X149753300Y-104035900D01*
%TO.N,Net-(D15-DOUT)*%
X150839600Y-109230300D02*
X146761400Y-105152100D01*
X121478200Y-105152000D02*
X120880800Y-104554600D01*
X167642200Y-109230300D02*
X150839600Y-109230300D01*
X146761400Y-105152100D02*
X121478200Y-105152100D01*
X121478200Y-105152100D02*
X121478200Y-105152000D01*
%TO.N,SDA*%
X189185000Y-81278500D02*
X185265900Y-77359400D01*
X185265900Y-77359400D02*
X148366100Y-77359400D01*
X148366100Y-77359400D02*
X147551700Y-76545000D01*
X146400000Y-76545000D02*
X147551700Y-76545000D01*
%TO.N,SCL*%
X185265900Y-79899400D02*
X189185000Y-83818500D01*
X147953800Y-79899400D02*
X185265900Y-79899400D01*
X146400000Y-79085000D02*
X147551700Y-79085000D01*
X147551700Y-79085000D02*
X147551700Y-79497300D01*
X147551700Y-79497300D02*
X147953800Y-79899400D01*
%TO.N,VCC*%
X145922900Y-77696700D02*
X146808500Y-77696700D01*
X145248300Y-77022100D02*
X145922900Y-77696700D01*
X145248300Y-76067900D02*
X145248300Y-77022100D01*
X148173900Y-79062100D02*
X148173900Y-79268700D01*
X173139800Y-75393300D02*
X145922900Y-75393300D01*
X146808500Y-77696700D02*
X148173900Y-79062100D01*
X173945000Y-76198500D02*
X173139800Y-75393300D01*
X145922900Y-75393300D02*
X145248300Y-76067900D01*
%TO.N,Column 1*%
X146000000Y-97300000D02*
X164980000Y-97300000D01*
X164980000Y-97300000D02*
X165020000Y-97340000D01*
X126860000Y-97300000D02*
X146000000Y-97300000D01*
%TO.N,Column 2*%
X183900000Y-116700000D02*
X164900000Y-116700000D01*
%TO.N,Column 3*%
X126940000Y-116700000D02*
X145900000Y-116700000D01*
X143150000Y-77970000D02*
X138900000Y-77970000D01*
X126900000Y-116740000D02*
X126940000Y-116700000D01*
X145535000Y-80355000D02*
X143150000Y-77970000D01*
X173945000Y-83818500D02*
X170481500Y-80355000D01*
X170481500Y-80355000D02*
X145535000Y-80355000D01*
%TO.N,EC11RB*%
X135215200Y-86358500D02*
X131826700Y-82970000D01*
X131826700Y-82970000D02*
X124400000Y-82970000D01*
X173945000Y-86358500D02*
X135215200Y-86358500D01*
%TO.N,EC11RA*%
X153517500Y-85088500D02*
X151384000Y-82955000D01*
X151384000Y-82955000D02*
X145153600Y-82955000D01*
X141470300Y-79271700D02*
X127003400Y-79271700D01*
X187915000Y-85088500D02*
X153517500Y-85088500D01*
X124400000Y-77970000D02*
X125701700Y-77970000D01*
X189185000Y-86358500D02*
X187915000Y-85088500D01*
X127003400Y-79271700D02*
X125701700Y-77970000D01*
X145153600Y-82955000D02*
X141470300Y-79271700D01*
%TD*%
M02*
