M48
METRIC
T1C0.300
T2C0.800
T3C0.889
T4C1.000
T5C1.500
%
G90
G05
T1
X120.881Y-104.555
X123.866Y-116.438
X135.413Y-80.47
X140.23Y-110.32
X147.102Y-104.08
X147.175Y-128.212
X148.174Y-79.269
X149.508Y-103.791
X152.901Y-122.325
X158.123Y-125.786
X159.454Y-104.036
X164.515Y-111.221
X166.221Y-106.993
X166.272Y-123.238
X167.642Y-109.23
X176.129Y-117.355
X179.776Y-110.787
X184.064Y-124.09
X184.444Y-104.49
X184.84Y-118.675
X188.769Y-104.338
X191.605Y-104.663
T2
X115.4Y-118.43
X115.4Y-126.05
X133.4Y-99.12
X133.4Y-106.74
X133.4Y-118.01
X133.4Y-125.63
X152.4Y-100.12
X152.4Y-107.74
X152.4Y-117.62
X152.4Y-125.24
X171.4Y-100.12
X171.4Y-107.74
X171.4Y-117.97
X171.4Y-125.59
X189.9Y-117.97
X189.9Y-125.59
X190.4Y-100.12
X190.4Y-107.74
T3
X173.945Y-71.118
X173.945Y-73.659
X173.945Y-76.198
X173.945Y-78.739
X173.945Y-81.278
X173.945Y-83.819
X173.945Y-86.358
X189.185Y-71.118
X189.185Y-73.659
X189.185Y-76.198
X189.185Y-78.739
X189.185Y-81.278
X189.185Y-83.819
X189.185Y-86.358
T4
X124.4Y-77.97
X124.4Y-80.47
X124.4Y-82.97
X138.9Y-77.97
X138.9Y-82.97
X146.4Y-76.545
X146.4Y-79.085
X146.4Y-81.625
X146.4Y-84.165
T5
X120.51Y-99.84
X120.55Y-119.28
X126.86Y-97.3
X126.9Y-116.74
X139.55Y-119.24
X139.65Y-99.84
X145.9Y-116.7
X146.0Y-97.3
X158.55Y-119.24
X158.67Y-99.88
X164.9Y-116.7
X165.02Y-97.34
X177.55Y-119.24
X177.67Y-99.88
X183.9Y-116.7
X184.02Y-97.34
T5
G00X131.25Y-74.87
M15
G01X132.55Y-74.87
M16
G05
G00X131.25Y-86.07
M15
G01X132.55Y-86.07
M16
G05
M30
