%TF.GenerationSoftware,KiCad,Pcbnew,9.0.2*%
%TF.CreationDate,2025-07-20T01:46:30+05:30*%
%TF.ProjectId,clackintosh-jr,636c6163-6b69-46e7-946f-73682d6a722e,rev?*%
%TF.SameCoordinates,Original*%
%TF.FileFunction,Copper,L2,Bot*%
%TF.FilePolarity,Positive*%
%FSLAX46Y46*%
G04 Gerber Fmt 4.6, Leading zero omitted, Abs format (unit mm)*
G04 Created by KiCad (PCBNEW 9.0.2) date 2025-07-20 01:46:30*
%MOMM*%
%LPD*%
G01*
G04 APERTURE LIST*
G04 Aperture macros list*
%AMRoundRect*
0 Rectangle with rounded corners*
0 $1 Rounding radius*
0 $2 $3 $4 $5 $6 $7 $8 $9 X,Y pos of 4 corners*
0 Add a 4 corners polygon primitive as box body*
4,1,4,$2,$3,$4,$5,$6,$7,$8,$9,$2,$3,0*
0 Add four circle primitives for the rounded corners*
1,1,$1+$1,$2,$3*
1,1,$1+$1,$4,$5*
1,1,$1+$1,$6,$7*
1,1,$1+$1,$8,$9*
0 Add four rect primitives between the rounded corners*
20,1,$1+$1,$2,$3,$4,$5,0*
20,1,$1+$1,$4,$5,$6,$7,0*
20,1,$1+$1,$6,$7,$8,$9,0*
20,1,$1+$1,$8,$9,$2,$3,0*%
G04 Aperture macros list end*
%TA.AperFunction,SMDPad,CuDef*%
%ADD10R,1.450000X0.820000*%
%TD*%
%TA.AperFunction,SMDPad,CuDef*%
%ADD11RoundRect,0.205000X0.520000X0.205000X-0.520000X0.205000X-0.520000X-0.205000X0.520000X-0.205000X0*%
%TD*%
%TA.AperFunction,ComponentPad*%
%ADD12R,2.000000X2.000000*%
%TD*%
%TA.AperFunction,ComponentPad*%
%ADD13C,2.000000*%
%TD*%
%TA.AperFunction,ComponentPad*%
%ADD14R,3.200000X2.000000*%
%TD*%
%TA.AperFunction,ComponentPad*%
%ADD15RoundRect,0.250000X0.550000X-0.550000X0.550000X0.550000X-0.550000X0.550000X-0.550000X-0.550000X0*%
%TD*%
%TA.AperFunction,ComponentPad*%
%ADD16C,1.600000*%
%TD*%
%TA.AperFunction,ComponentPad*%
%ADD17R,1.700000X1.700000*%
%TD*%
%TA.AperFunction,ComponentPad*%
%ADD18O,1.700000X1.700000*%
%TD*%
%TA.AperFunction,ComponentPad*%
%ADD19C,2.200000*%
%TD*%
%TA.AperFunction,SMDPad,CuDef*%
%ADD20RoundRect,0.152400X-1.063600X-0.609600X1.063600X-0.609600X1.063600X0.609600X-1.063600X0.609600X0*%
%TD*%
%TA.AperFunction,ComponentPad*%
%ADD21C,1.524000*%
%TD*%
%TA.AperFunction,SMDPad,CuDef*%
%ADD22RoundRect,0.152400X1.063600X0.609600X-1.063600X0.609600X-1.063600X-0.609600X1.063600X-0.609600X0*%
%TD*%
%TA.AperFunction,ViaPad*%
%ADD23C,0.600000*%
%TD*%
%TA.AperFunction,Conductor*%
%ADD24C,0.200000*%
%TD*%
G04 APERTURE END LIST*
D10*
%TO.P,D10,1,DOUT*%
%TO.N,Net-(D10-DOUT)*%
X183850000Y-127240000D03*
%TO.P,D10,2,VSS*%
%TO.N,GND*%
X183850000Y-125740000D03*
D11*
%TO.P,D10,3,DIN*%
%TO.N,LED*%
X178500000Y-125740000D03*
D10*
%TO.P,D10,4,VDD*%
%TO.N,+5V*%
X178500000Y-127240000D03*
%TD*%
D12*
%TO.P,SW9,A,A*%
%TO.N,EC11RA*%
X124400000Y-77970000D03*
D13*
%TO.P,SW9,B,B*%
%TO.N,EC11RB*%
X124400000Y-82970000D03*
%TO.P,SW9,C,C*%
%TO.N,GND*%
X124400000Y-80470000D03*
D14*
%TO.P,SW9,MP,MP*%
X131900000Y-74870000D03*
X131900000Y-86070000D03*
D13*
%TO.P,SW9,S1,S1*%
%TO.N,EC11SW1*%
X138900000Y-82970000D03*
%TO.P,SW9,S2,S2*%
%TO.N,Column 3*%
X138900000Y-77970000D03*
%TD*%
D15*
%TO.P,D6,1,K*%
%TO.N,Row 3*%
X171400000Y-125590000D03*
D16*
%TO.P,D6,2,A*%
%TO.N,Net-(D6-A)*%
X171400000Y-117970000D03*
%TD*%
D17*
%TO.P,J1,1,Pin_1*%
%TO.N,GND*%
X146400000Y-84165000D03*
D18*
%TO.P,J1,2,Pin_2*%
%TO.N,VCC*%
X146400000Y-81625000D03*
%TO.P,J1,3,Pin_3*%
%TO.N,SCL*%
X146400000Y-79085000D03*
%TO.P,J1,4,Pin_4*%
%TO.N,SDA*%
X146400000Y-76545000D03*
%TD*%
D19*
%TO.P,SW7,1,1*%
%TO.N,Column 3*%
X145900000Y-116700000D03*
%TO.P,SW7,2,2*%
%TO.N,Net-(D8-A)*%
X139550000Y-119240000D03*
%TD*%
D15*
%TO.P,D7,1,K*%
%TO.N,Row 3*%
X152400000Y-125240000D03*
D16*
%TO.P,D7,2,A*%
%TO.N,EC11SW1*%
X152400000Y-117620000D03*
%TD*%
D19*
%TO.P,SW6,1,1*%
%TO.N,Column 2*%
X164900000Y-116700000D03*
%TO.P,SW6,2,2*%
%TO.N,Net-(D6-A)*%
X158550000Y-119240000D03*
%TD*%
D15*
%TO.P,D3,1,K*%
%TO.N,Row 3*%
X171400000Y-107740000D03*
D16*
%TO.P,D3,2,A*%
%TO.N,Net-(D3-A)*%
X171400000Y-100120000D03*
%TD*%
D15*
%TO.P,D4,1,K*%
%TO.N,Row 1*%
X190400000Y-107740000D03*
D16*
%TO.P,D4,2,A*%
%TO.N,Net-(D4-A)*%
X190400000Y-100120000D03*
%TD*%
D15*
%TO.P,D8,1,K*%
%TO.N,Row 1*%
X133400000Y-125630000D03*
D16*
%TO.P,D8,2,A*%
%TO.N,Net-(D8-A)*%
X133400000Y-118010000D03*
%TD*%
D15*
%TO.P,D9,1,K*%
%TO.N,Row 2*%
X115400000Y-126050000D03*
D16*
%TO.P,D9,2,A*%
%TO.N,Net-(D9-A)*%
X115400000Y-118430000D03*
%TD*%
D19*
%TO.P,SW5,1,1*%
%TO.N,Column 2*%
X183900000Y-116700000D03*
%TO.P,SW5,2,2*%
%TO.N,Net-(D5-A)*%
X177550000Y-119240000D03*
%TD*%
%TO.P,SW4,1,1*%
%TO.N,Column 2*%
X184020000Y-97340000D03*
%TO.P,SW4,2,2*%
%TO.N,Net-(D4-A)*%
X177670000Y-99880000D03*
%TD*%
%TO.P,SW8,1,1*%
%TO.N,Column 3*%
X126900000Y-116740000D03*
%TO.P,SW8,2,2*%
%TO.N,Net-(D9-A)*%
X120550000Y-119280000D03*
%TD*%
%TO.P,SW3,1,1*%
%TO.N,Column 1*%
X165020000Y-97340000D03*
%TO.P,SW3,2,2*%
%TO.N,Net-(D3-A)*%
X158670000Y-99880000D03*
%TD*%
D15*
%TO.P,D5,1,K*%
%TO.N,Row 2*%
X189900000Y-125590000D03*
D16*
%TO.P,D5,2,A*%
%TO.N,Net-(D5-A)*%
X189900000Y-117970000D03*
%TD*%
D19*
%TO.P,SW2,1,1*%
%TO.N,Column 1*%
X146000000Y-97300000D03*
%TO.P,SW2,2,2*%
%TO.N,Net-(D2-A)*%
X139650000Y-99840000D03*
%TD*%
%TO.P,SW1,1,1*%
%TO.N,Column 1*%
X126860000Y-97300000D03*
%TO.P,SW1,2,2*%
%TO.N,Net-(D1-A)*%
X120510000Y-99840000D03*
%TD*%
D15*
%TO.P,D2,1,K*%
%TO.N,Row 2*%
X152400000Y-107740000D03*
D16*
%TO.P,D2,2,A*%
%TO.N,Net-(D2-A)*%
X152400000Y-100120000D03*
%TD*%
D15*
%TO.P,D1,1,K*%
%TO.N,Row 1*%
X133400000Y-106740000D03*
D16*
%TO.P,D1,2,A*%
%TO.N,Net-(D1-A)*%
X133400000Y-99120000D03*
%TD*%
D10*
%TO.P,D14,1,DOUT*%
%TO.N,Net-(D14-DOUT)*%
X146075000Y-107990000D03*
%TO.P,D14,2,VSS*%
%TO.N,GND*%
X146075000Y-106490000D03*
D11*
%TO.P,D14,3,DIN*%
%TO.N,Net-(D12-DOUT)*%
X140725000Y-106490000D03*
D10*
%TO.P,D14,4,VDD*%
%TO.N,+5V*%
X140725000Y-107990000D03*
%TD*%
%TO.P,D11,1,DOUT*%
%TO.N,Net-(D11-DOUT)*%
X126975000Y-127490000D03*
%TO.P,D11,2,VSS*%
%TO.N,GND*%
X126975000Y-125990000D03*
D11*
%TO.P,D11,3,DIN*%
%TO.N,Net-(D11-DIN)*%
X121625000Y-125990000D03*
D10*
%TO.P,D11,4,VDD*%
%TO.N,+5V*%
X121625000Y-127490000D03*
%TD*%
%TO.P,D17,1,DOUT*%
%TO.N,unconnected-(D17-DOUT-Pad1)*%
X126825000Y-107740000D03*
%TO.P,D17,2,VSS*%
%TO.N,GND*%
X126825000Y-106240000D03*
D11*
%TO.P,D17,3,DIN*%
%TO.N,Net-(D15-DOUT)*%
X121475000Y-106240000D03*
D10*
%TO.P,D17,4,VDD*%
%TO.N,+5V*%
X121475000Y-107740000D03*
%TD*%
%TO.P,D15,1,DOUT*%
%TO.N,Net-(D15-DOUT)*%
X164900000Y-127490000D03*
%TO.P,D15,2,VSS*%
%TO.N,GND*%
X164900000Y-125990000D03*
D11*
%TO.P,D15,3,DIN*%
%TO.N,Net-(D13-DOUT)*%
X159550000Y-125990000D03*
D10*
%TO.P,D15,4,VDD*%
%TO.N,+5V*%
X159550000Y-127490000D03*
%TD*%
D20*
%TO.P,U1,1,GPIO26/ADC0/A0*%
%TO.N,LED*%
X190020000Y-71118500D03*
D21*
X189185000Y-71118500D03*
D20*
%TO.P,U1,2,GPIO27/ADC1/A1*%
%TO.N,Row 1*%
X190020000Y-73658500D03*
D21*
X189185000Y-73658500D03*
D20*
%TO.P,U1,3,GPIO28/ADC2/A2*%
%TO.N,Row 2*%
X190020000Y-76198500D03*
D21*
X189185000Y-76198500D03*
D20*
%TO.P,U1,4,GPIO29/ADC3/A3*%
%TO.N,Row 3*%
X190020000Y-78738500D03*
D21*
X189185000Y-78738500D03*
D20*
%TO.P,U1,5,GPIO6/SDA*%
%TO.N,SDA*%
X190020000Y-81278500D03*
D21*
X189185000Y-81278500D03*
D20*
%TO.P,U1,6,GPIO7/SCL*%
%TO.N,SCL*%
X190020000Y-83818500D03*
D21*
X189185000Y-83818500D03*
D20*
%TO.P,U1,7,GPIO0/TX*%
%TO.N,EC11RA*%
X190020000Y-86358500D03*
D21*
X189185000Y-86358500D03*
%TO.P,U1,8,GPIO1/RX*%
%TO.N,EC11RB*%
X173945000Y-86358500D03*
D22*
X173110000Y-86358500D03*
D21*
%TO.P,U1,9,GPIO2/SCK*%
%TO.N,Column 3*%
X173945000Y-83818500D03*
D22*
X173110000Y-83818500D03*
D21*
%TO.P,U1,10,GPIO4/MISO*%
%TO.N,Column 2*%
X173945000Y-81278500D03*
D22*
X173110000Y-81278500D03*
D21*
%TO.P,U1,11,GPIO3/MOSI*%
%TO.N,Column 1*%
X173945000Y-78738500D03*
D22*
X173110000Y-78738500D03*
D21*
%TO.P,U1,12,3V3*%
%TO.N,VCC*%
X173945000Y-76198500D03*
D22*
X173110000Y-76198500D03*
D21*
%TO.P,U1,13,GND*%
%TO.N,GND*%
X173945000Y-73658500D03*
D22*
X173110000Y-73658500D03*
D21*
%TO.P,U1,14,VBUS*%
%TO.N,+5V*%
X173945000Y-71118500D03*
D22*
X173110000Y-71118500D03*
%TD*%
D10*
%TO.P,D13,1,DOUT*%
%TO.N,Net-(D13-DOUT)*%
X146050000Y-127490000D03*
%TO.P,D13,2,VSS*%
%TO.N,GND*%
X146050000Y-125990000D03*
D11*
%TO.P,D13,3,DIN*%
%TO.N,Net-(D11-DOUT)*%
X140700000Y-125990000D03*
D10*
%TO.P,D13,4,VDD*%
%TO.N,+5V*%
X140700000Y-127490000D03*
%TD*%
%TO.P,D12,1,DOUT*%
%TO.N,Net-(D12-DOUT)*%
X184150000Y-107600000D03*
%TO.P,D12,2,VSS*%
%TO.N,GND*%
X184150000Y-106100000D03*
D11*
%TO.P,D12,3,DIN*%
%TO.N,Net-(D10-DOUT)*%
X178800000Y-106100000D03*
D10*
%TO.P,D12,4,VDD*%
%TO.N,+5V*%
X178800000Y-107600000D03*
%TD*%
%TO.P,D16,1,DOUT*%
%TO.N,Net-(D11-DIN)*%
X165075000Y-107740000D03*
%TO.P,D16,2,VSS*%
%TO.N,GND*%
X165075000Y-106240000D03*
D11*
%TO.P,D16,3,DIN*%
%TO.N,Net-(D14-DOUT)*%
X159725000Y-106240000D03*
D10*
%TO.P,D16,4,VDD*%
%TO.N,+5V*%
X159725000Y-107740000D03*
%TD*%
D23*
%TO.N,Row 2*%
X152901300Y-122324500D03*
X191604600Y-104663200D03*
%TO.N,Row 3*%
X188769200Y-104337600D03*
%TO.N,GND*%
X184064100Y-124089600D03*
X135412700Y-80470000D03*
X166220700Y-106993000D03*
X184443800Y-104490500D03*
X147101700Y-104080000D03*
X166271900Y-123238100D03*
%TO.N,Net-(D10-DOUT)*%
X184839800Y-118674800D03*
X176129300Y-117354600D03*
%TO.N,Net-(D11-DIN)*%
X123866300Y-116437500D03*
X164515300Y-111221200D03*
%TO.N,Net-(D12-DOUT)*%
X140230300Y-110320200D03*
X179776400Y-110787000D03*
%TO.N,Net-(D13-DOUT)*%
X147174800Y-128211500D03*
X158122600Y-125786200D03*
%TO.N,Net-(D14-DOUT)*%
X149508500Y-103791100D03*
X159453600Y-104035900D03*
%TO.N,Net-(D15-DOUT)*%
X167642200Y-109230300D03*
X120880800Y-104554600D03*
%TO.N,VCC*%
X148173900Y-79268700D03*
%TD*%
D24*
%TO.N,Net-(D10-DOUT)*%
X185426700Y-127240000D02*
X183850000Y-127240000D01*
%TO.N,GND*%
X184064100Y-124089600D02*
X184064100Y-125525900D01*
X184064100Y-125525900D02*
X183850000Y-125740000D01*
%TO.N,LED*%
X178968300Y-120831700D02*
X178400000Y-121400000D01*
X178500000Y-121500000D02*
X178500000Y-125740000D01*
X178968300Y-120826000D02*
X178968300Y-120831700D01*
X178400000Y-121400000D02*
X178500000Y-121500000D01*
%TO.N,+5V*%
X178006900Y-127223600D02*
X177015250Y-128215250D01*
X178800000Y-107600000D02*
X178300000Y-108100000D01*
X178300000Y-108100000D02*
X178300000Y-108700000D01*
X178300000Y-108700000D02*
X178198300Y-108801700D01*
X177474000Y-127756500D02*
X177015250Y-128215250D01*
X178198300Y-108801700D02*
X178198300Y-115617200D01*
X178198300Y-115617200D02*
X178968300Y-116387200D01*
X177474000Y-121715300D02*
X177474000Y-127756500D01*
X178968300Y-116387200D02*
X178968300Y-120221000D01*
X178968300Y-120221000D02*
X177474000Y-121715300D01*
%TO.N,Net-(D12-DOUT)*%
X179776400Y-110787000D02*
X182013000Y-110787000D01*
X182013000Y-110787000D02*
X184150000Y-108650000D01*
X184150000Y-108650000D02*
X184150000Y-107600000D01*
%TO.N,GND*%
X184443800Y-104490500D02*
X184443800Y-105806200D01*
X184443800Y-105806200D02*
X184150000Y-106100000D01*
%TO.N,Net-(D10-DOUT)*%
X176129300Y-117354600D02*
X176129300Y-108533700D01*
X178563000Y-106100000D02*
X178800000Y-106100000D01*
X176129300Y-108533700D02*
X178563000Y-106100000D01*
%TO.N,Row 1*%
X188078600Y-97997700D02*
X188078600Y-87790800D01*
X188167500Y-98238400D02*
X188243400Y-98162500D01*
X134550000Y-124480000D02*
X133400000Y-125630000D01*
X190400000Y-107292600D02*
X188167500Y-105060100D01*
X189185000Y-73658500D02*
X190020000Y-73658500D01*
X189185000Y-73658500D02*
X187664500Y-75179000D01*
X190400000Y-107740000D02*
X190400000Y-107292600D01*
X133400000Y-106740000D02*
X134550000Y-107890000D01*
X188078600Y-87790800D02*
X188077100Y-87789300D01*
X134550000Y-107890000D02*
X134550000Y-124480000D01*
X188167500Y-105060100D02*
X188167500Y-98238400D01*
X188243400Y-98162500D02*
X188078600Y-97997700D01*
X187664500Y-75179000D02*
X187664500Y-87376700D01*
X188243400Y-98162500D02*
X188078600Y-97997700D01*
X187923500Y-87635700D02*
X188077100Y-87789300D01*
X187923500Y-87635700D02*
X188077100Y-87789300D01*
X187664500Y-87376700D02*
X187923500Y-87635700D01*
%TO.N,Row 2*%
X190020000Y-76198500D02*
X191604600Y-77783100D01*
X153501700Y-121724100D02*
X152901300Y-122324500D01*
X191604600Y-77783100D02*
X191604600Y-104663200D01*
X152400000Y-107740000D02*
X153501700Y-108841700D01*
X189185000Y-76198500D02*
X190020000Y-76198500D01*
X191604600Y-104663200D02*
X191604600Y-123885400D01*
X153501700Y-108841700D02*
X153501700Y-121724100D01*
X191604600Y-123885400D02*
X189900000Y-125590000D01*
%TO.N,Row 3*%
X188769200Y-104337600D02*
X188769200Y-87867100D01*
X188110900Y-79812600D02*
X189185000Y-78738500D01*
X172549900Y-108889900D02*
X172549900Y-124440100D01*
X188110900Y-87208800D02*
X188110900Y-79812600D01*
X189185000Y-78738500D02*
X190020000Y-78738500D01*
X188769200Y-87867100D02*
X188110900Y-87208800D01*
X171400000Y-107740000D02*
X172549900Y-108889900D01*
X172549900Y-124440100D02*
X171400000Y-125590000D01*
%TO.N,EC11SW1*%
X150110200Y-85682100D02*
X147398100Y-82970000D01*
X147398100Y-82970000D02*
X138900000Y-82970000D01*
X152400000Y-117620000D02*
X150110200Y-115330200D01*
X150110200Y-115330200D02*
X150110200Y-85682100D01*
%TO.N,LED*%
X187765800Y-98453100D02*
X187765800Y-114885800D01*
X187342800Y-87802000D02*
X187504500Y-87963700D01*
X187342800Y-87802000D02*
X187504500Y-87963700D01*
X187225100Y-73078400D02*
X187225100Y-87684300D01*
X187504500Y-98191800D02*
X187765800Y-98453100D01*
X187225100Y-87684300D02*
X187342800Y-87802000D01*
X189185000Y-71118500D02*
X190020000Y-71118500D01*
X187765800Y-114885800D02*
X184541900Y-118109700D01*
X184541900Y-118109700D02*
X181684600Y-118109700D01*
X178968300Y-125658300D02*
X179050000Y-125740000D01*
X187504500Y-87963700D02*
X187504500Y-98191800D01*
X181684600Y-118109700D02*
X178968300Y-120826000D01*
X189185000Y-71118500D02*
X187225100Y-73078400D01*
%TO.N,+5V*%
X156070700Y-125037400D02*
X154756500Y-126351600D01*
X173110000Y-71118500D02*
X160129800Y-84098700D01*
X121625000Y-127490000D02*
X121111700Y-127490000D01*
X176630300Y-128600200D02*
X160283900Y-128600200D01*
X147133600Y-125631000D02*
X147133600Y-120818100D01*
X179225000Y-107490000D02*
X178198300Y-107490000D01*
X154756500Y-126351600D02*
X147854200Y-126351600D01*
X140832000Y-108097000D02*
X140725000Y-107990000D01*
X160283900Y-128600200D02*
X159550000Y-127866300D01*
X178023300Y-127240000D02*
X178006900Y-127223600D01*
X121111700Y-127490000D02*
X120598300Y-127490000D01*
X159550000Y-127866300D02*
X159550000Y-127490000D01*
X147854200Y-126351600D02*
X147854200Y-128446300D01*
X140832000Y-114516500D02*
X140832000Y-108097000D01*
X141667900Y-128834200D02*
X140700000Y-127866300D01*
X147466300Y-128834200D02*
X141667900Y-128834200D01*
X140700000Y-127866300D02*
X140700000Y-127490000D01*
X147854200Y-128446300D02*
X147466300Y-128834200D01*
X147854200Y-126351600D02*
X147133600Y-125631000D01*
X147133600Y-120818100D02*
X140832000Y-114516500D01*
X177015250Y-128215250D02*
X176630300Y-128600200D01*
X159725000Y-107740000D02*
X158698300Y-107740000D01*
X121475000Y-107740000D02*
X120448300Y-107740000D01*
X160129800Y-84098700D02*
X160129800Y-101387500D01*
X118028900Y-124920600D02*
X120598300Y-127490000D01*
X118028900Y-110159400D02*
X118028900Y-124920600D01*
X158647100Y-102870200D02*
X158647100Y-107688800D01*
X156070700Y-110367600D02*
X156070700Y-125037400D01*
X158647100Y-107688800D02*
X158698300Y-107740000D01*
X140700000Y-127490000D02*
X139673300Y-127490000D01*
X121111700Y-127490000D02*
X122215300Y-128593600D01*
X160129800Y-101387500D02*
X158647100Y-102870200D01*
X179050000Y-127240000D02*
X178023300Y-127240000D01*
X159550000Y-127490000D02*
X158523300Y-127490000D01*
X158698300Y-107740000D02*
X156070700Y-110367600D01*
X156070700Y-125037400D02*
X158523300Y-127490000D01*
X120448300Y-107740000D02*
X118028900Y-110159400D01*
X122215300Y-128593600D02*
X138569700Y-128593600D01*
X138569700Y-128593600D02*
X139673300Y-127490000D01*
X173945000Y-71118500D02*
X173110000Y-71118500D01*
%TO.N,GND*%
X139628600Y-110071100D02*
X139628600Y-114101700D01*
X139532000Y-108926700D02*
X139693900Y-109088600D01*
X146400000Y-85316700D02*
X147443100Y-86359800D01*
X146400000Y-84165000D02*
X146400000Y-85316700D01*
X146050000Y-120523100D02*
X146050000Y-125990000D01*
X139693900Y-109088600D02*
X139693900Y-110005800D01*
X131900000Y-86070000D02*
X133801700Y-86070000D01*
X125493000Y-112571600D02*
X127851700Y-110212900D01*
X146075000Y-106490000D02*
X146538000Y-106490000D01*
X184443800Y-104490500D02*
X184575000Y-104621700D01*
X147443100Y-101344800D02*
X147101700Y-101686200D01*
X133801700Y-80470000D02*
X133801700Y-86070000D01*
X131900000Y-86070000D02*
X129998300Y-86070000D01*
X147443100Y-86359800D02*
X147443100Y-101344800D01*
X146538000Y-106490000D02*
X145484400Y-105436400D01*
X126975000Y-125990000D02*
X126975000Y-120944900D01*
X140331100Y-105436400D02*
X139292200Y-106475300D01*
X127851700Y-106241500D02*
X127850200Y-106240000D01*
X173110000Y-73658500D02*
X173945000Y-73658500D01*
X166313800Y-107086100D02*
X166313800Y-117743200D01*
X166185600Y-125731100D02*
X165926700Y-125990000D01*
X166101700Y-106240000D02*
X166101700Y-106874000D01*
X139628600Y-114101700D02*
X146050000Y-120523100D01*
X130652100Y-88025500D02*
X129998300Y-87371700D01*
X139693900Y-110005800D02*
X139628600Y-110071100D01*
X129998300Y-87371700D02*
X129998300Y-86070000D01*
X147000900Y-106490000D02*
X147100200Y-106490000D01*
X166313800Y-117743200D02*
X166185600Y-117871400D01*
X166185600Y-123238100D02*
X166185600Y-125731100D01*
X146538000Y-106490000D02*
X147000900Y-106490000D01*
X165075000Y-106240000D02*
X166101700Y-106240000D01*
X131900000Y-74870000D02*
X133801700Y-74870000D01*
X166185600Y-123238100D02*
X166271900Y-123238100D01*
X127851700Y-106240000D02*
X130652100Y-103439600D01*
X133801700Y-74870000D02*
X133801700Y-80470000D01*
X139292200Y-108686900D02*
X139532000Y-108926700D01*
X130652100Y-103439600D02*
X130652100Y-88025500D01*
X147101700Y-101686200D02*
X147101700Y-104080000D01*
X139292200Y-106475300D02*
X139292200Y-108686900D01*
X139532000Y-108926700D02*
X139693900Y-109088600D01*
X147100200Y-106490000D02*
X147101700Y-106490000D01*
X166185600Y-117871400D02*
X166185600Y-123238100D01*
X133801700Y-80470000D02*
X135412700Y-80470000D01*
X125493000Y-119462900D02*
X125493000Y-112571600D01*
X145484400Y-105436400D02*
X140331100Y-105436400D01*
X166220700Y-106993000D02*
X166313800Y-107086100D01*
X126825000Y-106240000D02*
X127850200Y-106240000D01*
X166101700Y-106874000D02*
X166220700Y-106993000D01*
X147101700Y-104080000D02*
X147101700Y-106490000D01*
X126975000Y-120944900D02*
X125493000Y-119462900D01*
X127851700Y-110212900D02*
X127851700Y-106241500D01*
X164900000Y-125990000D02*
X165926700Y-125990000D01*
X127850200Y-106240000D02*
X127851700Y-106240000D01*
%TO.N,Net-(D10-DOUT)*%
X179119900Y-105990000D02*
X179225000Y-105990000D01*
X184839800Y-123754600D02*
X184839800Y-118674800D01*
X185426700Y-124341500D02*
X184839800Y-123754600D01*
X185426700Y-127240000D02*
X185426700Y-124341500D01*
%TO.N,Net-(D11-DOUT)*%
X135108400Y-125990000D02*
X133608400Y-127490000D01*
X140700000Y-125990000D02*
X135108400Y-125990000D01*
X133608400Y-127490000D02*
X126975000Y-127490000D01*
%TO.N,Net-(D11-DIN)*%
X123866300Y-116437500D02*
X123866300Y-117946100D01*
X123866300Y-117946100D02*
X121625000Y-120187400D01*
X165075000Y-110661500D02*
X164515300Y-111221200D01*
X165075000Y-107740000D02*
X165075000Y-110661500D01*
X121625000Y-120187400D02*
X121625000Y-125990000D01*
%TO.N,Net-(D12-DOUT)*%
X139698300Y-108525000D02*
X139875000Y-108701700D01*
X139985300Y-108701700D02*
X140230300Y-108946700D01*
X140645200Y-106490000D02*
X139698300Y-107436900D01*
X139875000Y-108701700D02*
X139985300Y-108701700D01*
X140230300Y-108946700D02*
X140230300Y-110320200D01*
X139698300Y-107436900D02*
X139698300Y-108525000D01*
X184575000Y-107490000D02*
X184575000Y-107787500D01*
X140725000Y-106490000D02*
X140645200Y-106490000D01*
%TO.N,Net-(D13-DOUT)*%
X159346200Y-125786200D02*
X159550000Y-125990000D01*
X147076700Y-127490000D02*
X147076700Y-128113400D01*
X146050000Y-127490000D02*
X147076700Y-127490000D01*
X147076700Y-128113400D02*
X147174800Y-128211500D01*
X158122600Y-125786200D02*
X159346200Y-125786200D01*
%TO.N,Net-(D14-DOUT)*%
X149508500Y-103791100D02*
X149508500Y-105583200D01*
X159453600Y-105968600D02*
X159453600Y-104035900D01*
X159725000Y-106240000D02*
X159453600Y-105968600D01*
X149508500Y-105583200D02*
X147101700Y-107990000D01*
X146075000Y-107990000D02*
X147101700Y-107990000D01*
%TO.N,Net-(D15-DOUT)*%
X165926700Y-127490000D02*
X168691300Y-124725400D01*
X168691300Y-124725400D02*
X168691300Y-110279400D01*
X120880800Y-104554600D02*
X121475000Y-105148800D01*
X121475000Y-105148800D02*
X121475000Y-106240000D01*
X168691300Y-110279400D02*
X167642200Y-109230300D01*
X164900000Y-127490000D02*
X165926700Y-127490000D01*
%TO.N,SDA*%
X190020000Y-81278500D02*
X189185000Y-81278500D01*
%TO.N,SCL*%
X190020000Y-83818500D02*
X189185000Y-83818500D01*
%TO.N,VCC*%
X146969300Y-80473300D02*
X148173900Y-79268700D01*
X146400000Y-81625000D02*
X146400000Y-80473300D01*
X173110000Y-76198500D02*
X173945000Y-76198500D01*
X146400000Y-80473300D02*
X146969300Y-80473300D01*
%TO.N,Column 1*%
X173945000Y-78738500D02*
X173110000Y-78738500D01*
X165020000Y-97340000D02*
X165020000Y-86828500D01*
X165020000Y-86828500D02*
X173110000Y-78738500D01*
%TO.N,Column 2*%
X184020000Y-102681700D02*
X185631500Y-104293200D01*
X184020000Y-91353500D02*
X184020000Y-97340000D01*
X184020000Y-97340000D02*
X184020000Y-102681700D01*
X173945000Y-81278500D02*
X184020000Y-91353500D01*
X185631500Y-114968500D02*
X183900000Y-116700000D01*
X185631500Y-104293200D02*
X185631500Y-114968500D01*
X173945000Y-81278500D02*
X173110000Y-81278500D01*
%TO.N,Column 3*%
X131939700Y-96330400D02*
X136896800Y-91373300D01*
X126900000Y-116740000D02*
X131939700Y-111700300D01*
X173110000Y-83818500D02*
X173945000Y-83818500D01*
X131939700Y-111700300D02*
X131939700Y-96330400D01*
X136896800Y-79973200D02*
X138900000Y-77970000D01*
X136896800Y-91373300D02*
X136896800Y-79973200D01*
%TO.N,EC11RB*%
X173945000Y-86358500D02*
X173110000Y-86358500D01*
%TO.N,EC11RA*%
X189185000Y-86358500D02*
X190020000Y-86358500D01*
%TD*%
M02*
