%TF.GenerationSoftware,KiCad,Pcbnew,9.0.2*%
%TF.CreationDate,2025-07-20T01:46:30+05:30*%
%TF.ProjectId,clackintosh-jr,636c6163-6b69-46e7-946f-73682d6a722e,rev?*%
%TF.SameCoordinates,Original*%
%TF.FileFunction,Soldermask,Top*%
%TF.FilePolarity,Negative*%
%FSLAX46Y46*%
G04 Gerber Fmt 4.6, Leading zero omitted, Abs format (unit mm)*
G04 Created by KiCad (PCBNEW 9.0.2) date 2025-07-20 01:46:30*
%MOMM*%
%LPD*%
G01*
G04 APERTURE LIST*
G04 Aperture macros list*
%AMRoundRect*
0 Rectangle with rounded corners*
0 $1 Rounding radius*
0 $2 $3 $4 $5 $6 $7 $8 $9 X,Y pos of 4 corners*
0 Add a 4 corners polygon primitive as box body*
4,1,4,$2,$3,$4,$5,$6,$7,$8,$9,$2,$3,0*
0 Add four circle primitives for the rounded corners*
1,1,$1+$1,$2,$3*
1,1,$1+$1,$4,$5*
1,1,$1+$1,$6,$7*
1,1,$1+$1,$8,$9*
0 Add four rect primitives between the rounded corners*
20,1,$1+$1,$2,$3,$4,$5,0*
20,1,$1+$1,$4,$5,$6,$7,0*
20,1,$1+$1,$6,$7,$8,$9,0*
20,1,$1+$1,$8,$9,$2,$3,0*%
G04 Aperture macros list end*
%ADD10R,2.000000X2.000000*%
%ADD11C,2.000000*%
%ADD12R,3.200000X2.000000*%
%ADD13RoundRect,0.250000X0.550000X-0.550000X0.550000X0.550000X-0.550000X0.550000X-0.550000X-0.550000X0*%
%ADD14C,1.600000*%
%ADD15R,1.700000X1.700000*%
%ADD16O,1.700000X1.700000*%
%ADD17C,1.700000*%
%ADD18C,4.000000*%
%ADD19C,2.200000*%
%ADD20C,1.524000*%
G04 APERTURE END LIST*
D10*
%TO.C,SW9*%
X124400000Y-77970000D03*
D11*
X124400000Y-82970000D03*
X124400000Y-80470000D03*
D12*
X131900000Y-74870000D03*
X131900000Y-86070000D03*
D11*
X138900000Y-82970000D03*
X138900000Y-77970000D03*
%TD*%
D13*
%TO.C,D6*%
X171400000Y-125590000D03*
D14*
X171400000Y-117970000D03*
%TD*%
D15*
%TO.C,J1*%
X146400000Y-84165000D03*
D16*
X146400000Y-81625000D03*
X146400000Y-79085000D03*
X146400000Y-76545000D03*
%TD*%
D17*
%TO.C,SW7*%
X138280000Y-121780000D03*
D18*
X143360000Y-121780000D03*
D17*
X148440000Y-121780000D03*
D19*
X145900000Y-116700000D03*
X139550000Y-119240000D03*
%TD*%
D13*
%TO.C,D7*%
X152400000Y-125240000D03*
D14*
X152400000Y-117620000D03*
%TD*%
D17*
%TO.C,SW6*%
X157280000Y-121780000D03*
D18*
X162360000Y-121780000D03*
D17*
X167440000Y-121780000D03*
D19*
X164900000Y-116700000D03*
X158550000Y-119240000D03*
%TD*%
D13*
%TO.C,D3*%
X171400000Y-107740000D03*
D14*
X171400000Y-100120000D03*
%TD*%
D13*
%TO.C,D4*%
X190400000Y-107740000D03*
D14*
X190400000Y-100120000D03*
%TD*%
D13*
%TO.C,D8*%
X133400000Y-125630000D03*
D14*
X133400000Y-118010000D03*
%TD*%
D13*
%TO.C,D9*%
X115400000Y-126050000D03*
D14*
X115400000Y-118430000D03*
%TD*%
D17*
%TO.C,SW5*%
X176280000Y-121780000D03*
D18*
X181360000Y-121780000D03*
D17*
X186440000Y-121780000D03*
D19*
X183900000Y-116700000D03*
X177550000Y-119240000D03*
%TD*%
D17*
%TO.C,SW4*%
X176400000Y-102420000D03*
D18*
X181480000Y-102420000D03*
D17*
X186560000Y-102420000D03*
D19*
X184020000Y-97340000D03*
X177670000Y-99880000D03*
%TD*%
D17*
%TO.C,SW8*%
X119280000Y-121820000D03*
D18*
X124360000Y-121820000D03*
D17*
X129440000Y-121820000D03*
D19*
X126900000Y-116740000D03*
X120550000Y-119280000D03*
%TD*%
D17*
%TO.C,SW3*%
X157400000Y-102420000D03*
D18*
X162480000Y-102420000D03*
D17*
X167560000Y-102420000D03*
D19*
X165020000Y-97340000D03*
X158670000Y-99880000D03*
%TD*%
D13*
%TO.C,D5*%
X189900000Y-125590000D03*
D14*
X189900000Y-117970000D03*
%TD*%
D17*
%TO.C,SW2*%
X138380000Y-102380000D03*
D18*
X143460000Y-102380000D03*
D17*
X148540000Y-102380000D03*
D19*
X146000000Y-97300000D03*
X139650000Y-99840000D03*
%TD*%
D17*
%TO.C,SW1*%
X119240000Y-102380000D03*
D18*
X124320000Y-102380000D03*
D17*
X129400000Y-102380000D03*
D19*
X126860000Y-97300000D03*
X120510000Y-99840000D03*
%TD*%
D13*
%TO.C,D2*%
X152400000Y-107740000D03*
D14*
X152400000Y-100120000D03*
%TD*%
D13*
%TO.C,D1*%
X133400000Y-106740000D03*
D14*
X133400000Y-99120000D03*
%TD*%
D20*
%TO.C,U1*%
X189185000Y-71118500D03*
X189185000Y-73658500D03*
X189185000Y-76198500D03*
X189185000Y-78738500D03*
X189185000Y-81278500D03*
X189185000Y-83818500D03*
X189185000Y-86358500D03*
X173945000Y-86358500D03*
X173945000Y-83818500D03*
X173945000Y-81278500D03*
X173945000Y-78738500D03*
X173945000Y-76198500D03*
X173945000Y-73658500D03*
X173945000Y-71118500D03*
%TD*%
M02*
