M48
METRIC
T1C1.700
T2C4.000
%
G90
G05
T1
X119.24Y-102.38
X119.28Y-121.82
X129.4Y-102.38
X129.44Y-121.82
X138.28Y-121.78
X138.38Y-102.38
X148.44Y-121.78
X148.54Y-102.38
X157.28Y-121.78
X157.4Y-102.42
X167.44Y-121.78
X167.56Y-102.42
X176.28Y-121.78
X176.4Y-102.42
X186.44Y-121.78
X186.56Y-102.42
T2
X124.32Y-102.38
X124.36Y-121.82
X143.36Y-121.78
X143.46Y-102.38
X162.36Y-121.78
X162.48Y-102.42
X181.36Y-121.78
X181.48Y-102.42
M30
